# xmcd
#
# Track frame offsets:
#	182
#	9902
#	28030
#	44142
#	60162
#	73990
#	83985
#	97177
#	107697
#	125797
#	142107
#	156912
#	166507
#	182205
#	194000
#	209192
#
# Disc length: 3009 seconds
#
# Revision: 2
# Processed by: cddbd v1.5.2PL0 Copyright (c) Steve Scherf et al.
# Submitted via: EasyCDDAExtractor 2010.6.0.0
#
DISCID=f30bbf10
DTITLE=Various Artist - The Best Of The Spot
DYEAR=0
DGENRE=Revival
TTITLE0=Perry Como - Caterina
TTITLE1=Synthesizer Orchestra - Hymne
TTITLE2=Righteous Bros. - Unchained Melody
TTITLE3=Mungo Jerry - In the summertime
TTITLE4=The Difters - On Brodway
TTITLE5=The Marcels - Blue Moon
TTITLE6=B.J. Thomas - Raindrops keep falling on my head
TTITLE7=Pat Boone - Love letters in the sand
TTITLE8=Franck Sinatra - Night And Day
TTITLE9=Ray Charles - Giorgia on my mind
TTITLE10=Mamas and Papas - Dream a little dream of me
TTITLE11=Sam Cooke - Wonderful World
TTITLE12=Nat King Cole - Unforgettable
TTITLE13=Jim Reeves - Welcome to my world
TTITLE14=Martha Reeves - I heard it trough the gravepine
TTITLE15=Igor Petronczech Chamber Orchestra - Romance
EXTD=
EXTT0=
EXTT1=
EXTT2=
EXTT3=
EXTT4=
EXTT5=
EXTT6=
EXTT7=
EXTT8=
EXTT9=
EXTT10=
EXTT11=
EXTT12=
EXTT13=
EXTT14=
EXTT15=
PLAYORDER=
